<?xml version="1.0" encoding="UTF-8" standalone="no"?>
<!-- Created with Inkscape (http://www.inkscape.org/) -->

<svg
   xmlns:dc="http://purl.org/dc/elements/1.1/"
   xmlns:cc="http://creativecommons.org/ns#"
   xmlns:rdf="http://www.w3.org/1999/02/22-rdf-syntax-ns#"
   xmlns:svg="http://www.w3.org/2000/svg"
   xmlns="http://www.w3.org/2000/svg"
   xmlns:sodipodi="http://sodipodi.sourceforge.net/DTD/sodipodi-0.dtd"
   xmlns:inkscape="http://www.inkscape.org/namespaces/inkscape"
   width="744.09448819"
   height="1052.3622047"
   id="svg4217"
   version="1.1"
   inkscape:version="0.47 r22583"
   sodipodi:docname="new_mod.svg">
  <defs
     id="defs4219">
    <inkscape:perspective
       sodipodi:type="inkscape:persp3d"
       inkscape:vp_x="0 : 526.18109 : 1"
       inkscape:vp_y="0 : 1000 : 0"
       inkscape:vp_z="744.09448 : 526.18109 : 1"
       inkscape:persp3d-origin="372.04724 : 350.78739 : 1"
       id="perspective4225" />
    <inkscape:perspective
       id="perspective4164"
       inkscape:persp3d-origin="0.5 : 0.33333333 : 1"
       inkscape:vp_z="1 : 0.5 : 1"
       inkscape:vp_y="0 : 1000 : 0"
       inkscape:vp_x="0 : 0.5 : 1"
       sodipodi:type="inkscape:persp3d" />
    <inkscape:perspective
       id="perspective5677"
       inkscape:persp3d-origin="0.5 : 0.33333333 : 1"
       inkscape:vp_z="1 : 0.5 : 1"
       inkscape:vp_y="0 : 1000 : 0"
       inkscape:vp_x="0 : 0.5 : 1"
       sodipodi:type="inkscape:persp3d" />
  </defs>
  <sodipodi:namedview
     id="base"
     pagecolor="#ffffff"
     bordercolor="#666666"
     borderopacity="1.0"
     inkscape:pageopacity="0.0"
     inkscape:pageshadow="2"
     inkscape:zoom="0.49497475"
     inkscape:cx="313.38156"
     inkscape:cy="520"
     inkscape:document-units="px"
     inkscape:current-layer="layer1"
     showgrid="false"
     inkscape:window-width="1024"
     inkscape:window-height="720"
     inkscape:window-x="-4"
     inkscape:window-y="-3"
     inkscape:window-maximized="1" />
  <metadata
     id="metadata4222">
    <rdf:RDF>
      <cc:Work
         rdf:about="">
        <dc:format>image/svg+xml</dc:format>
        <dc:type
           rdf:resource="http://purl.org/dc/dcmitype/StillImage" />
        <dc:title></dc:title>
      </cc:Work>
    </rdf:RDF>
  </metadata>
  <g
     inkscape:label="Layer 1"
     inkscape:groupmode="layer"
     id="layer1">
    <g
       id="g5696">
      <circle
         transform="matrix(25,0,0,25,-6147.9705,-9192.7323)"
         d="m 252.489,388.01401 c 0,1.49227 -1.20972,2.702 -2.702,2.702 -1.49227,0 -2.702,-1.20973 -2.702,-2.702 0,-1.49228 1.20973,-2.702 2.702,-2.702 1.49228,0 2.702,1.20972 2.702,2.702 z"
         style="fill:#ffffff;stroke:#ff4500;stroke-width:1.10000001999999997;stroke-opacity:1"
         sodipodi:ry="2.7019999"
         sodipodi:rx="2.7019999"
         sodipodi:cy="388.01401"
         sodipodi:cx="249.787"
         cx="249.787"
         cy="388.01401"
         r="2.7019999"
         id="circle2843" />
      <circle
         transform="matrix(25,0,0,25,-6147.9705,-9192.7323)"
         d="m 274.59101,388.01401 c 0,1.49227 -1.20973,2.702 -2.702,2.702 -1.49228,0 -2.702,-1.20973 -2.702,-2.702 0,-1.49228 1.20972,-2.702 2.702,-2.702 1.49227,0 2.702,1.20972 2.702,2.702 z"
         style="fill:#ffffff;stroke:#ff4500;stroke-width:1.10000001999999997;fill-opacity:1;stroke-opacity:1"
         sodipodi:ry="2.7019999"
         sodipodi:rx="2.7019999"
         sodipodi:cy="388.01401"
         sodipodi:cx="271.88901"
         cx="271.88901"
         cy="388.01401"
         r="2.7019999"
         id="circle2845" />
      <path
         style="fill:none;stroke:#ff4500;stroke-width:27.50000000000000000;stroke-linecap:round;stroke-linejoin:round;stroke-opacity:1"
         d="m 560.25455,270.51775 c 0,0 0,0 -135.1,-31.8 l -49.65,156.95"
         id="path2847" />
      <circle
         transform="matrix(25,0,0,25,-6147.9705,-9192.7323)"
         d="m 272.664,378.96701 c 0,1.17637 -0.95364,2.13 -2.13,2.13 -1.17637,0 -2.13,-0.95363 -2.13,-2.13 0,-1.17637 0.95363,-2.13 2.13,-2.13 1.17636,0 2.13,0.95363 2.13,2.13 z"
         style="fill:#ffffff;stroke:#ff4500;stroke-width:1.10000001999999997;stroke-opacity:1"
         sodipodi:ry="2.1300001"
         sodipodi:rx="2.1300001"
         sodipodi:cy="378.96701"
         sodipodi:cx="270.534"
         cx="270.534"
         cy="378.96701"
         r="2.1300001"
         id="circle2851" />
      <ellipse
         transform="matrix(25,0,0,25,-6147.9705,-9192.7323)"
         d="m 273.01799,391.73001 c 0,4.41055 -5.47959,7.986 -12.239,7.986 -6.75941,0 -12.239,-3.57545 -12.239,-7.986 0,-4.41055 5.47959,-7.986 12.239,-7.986 6.75941,0 12.239,3.57545 12.239,7.986 z"
         style="fill:#ffffff;stroke:#ff4500;stroke-width:1.10000001999999997;stroke-opacity:1"
         sodipodi:ry="7.9860001"
         sodipodi:rx="12.239"
         sodipodi:cy="391.73001"
         sodipodi:cx="260.77899"
         cx="260.77899"
         cy="391.73001"
         rx="12.239"
         ry="7.9860001"
         id="ellipse2863" />
      <g
         id="g5691">
        <circle
           d="m 257.96,390.17099 c 0,0.78977 -0.64023,1.43 -1.43,1.43 -0.78977,0 -1.43,-0.64023 -1.43,-1.43 0,-0.78977 0.64023,-1.43 1.43,-1.43 0.78977,0 1.43,0.64023 1.43,1.43 z"
           style="fill:#ff4500;stroke:#ff4500;stroke-width:1.10000002"
           sodipodi:ry="1.4299999"
           sodipodi:rx="1.4299999"
           sodipodi:cy="390.17099"
           sodipodi:cx="256.53"
           cx="256.53"
           cy="390.17099"
           r="1.4299999"
           id="circle2885"
           transform="matrix(25,0,0,25,-6147.9705,-9192.7323)" />
        <circle
           d="m 266.58302,390.17099 c 0,0.78977 -0.64024,1.43 -1.43,1.43 -0.78977,0 -1.43,-0.64023 -1.43,-1.43 0,-0.78977 0.64023,-1.43 1.43,-1.43 0.78976,0 1.43,0.64023 1.43,1.43 z"
           style="fill:#ff4500;stroke:#ff4500;stroke-width:1.10000002"
           sodipodi:ry="1.4299999"
           sodipodi:rx="1.4299999"
           sodipodi:cy="390.17099"
           sodipodi:cx="265.15302"
           cx="265.15302"
           cy="390.17099"
           r="1.4299999"
           id="circle2887"
           transform="matrix(25,0,0,25,-6147.9705,-9192.7323)" />
        <circle
           id="circle2845-4"
           r="2.7019999"
           cy="388.01401"
           cx="271.88901"
           sodipodi:cx="271.88901"
           sodipodi:cy="388.01401"
           sodipodi:rx="2.7019999"
           sodipodi:ry="2.7019999"
           style="fill:#ffffff;fill-opacity:1;stroke:#ff4500;stroke-width:1.10000002;stroke-opacity:1"
           d="m 274.59101,388.01401 c 0,1.49227 -1.20973,2.702 -2.702,2.702 -1.49228,0 -2.702,-1.20973 -2.702,-2.702 0,-1.49228 1.20972,-2.702 2.702,-2.702 1.49227,0 2.702,1.20972 2.702,2.702 z"
           transform="matrix(23.062731,0,0,23.062732,-5896.9856,-8247.5948)" />
      </g>
    </g>
  </g>
</svg>
